# xmcd
#
# Track frame offsets:
#	182
#	17945
#	36365
#	49100
#	59845
#	73947
#	87357
#	100447
#	113140
#	127582
#
# Disc length: 1909 seconds
#
# Revision: 0
# Processed by: cddbd v1.5.1PL0 Copyright (c) Steve Scherf et al.
# Submitted via: audiograbber 1.83.01
#
DISCID=8f07730a
DTITLE=Ronnie Mcdowell - Greatest Hits
DYEAR=1994
DGENRE=Country
TTITLE0=What's It Gonna Take
TTITLE1=(Change Of Heart) Change To Me
TTITLE2=Older Women
TTITLE3=It's Only Make Believe
TTITLE4=You're Gonna Ruin My Bad Reputation
TTITLE5=All Tied Up
TTITLE6=Wandering Eyes
TTITLE7=In A New York Minute
TTITLE8=Bedroom Eyes
TTITLE9=Unchained Melody
EXTD=Curb Records-1994
EXTT0=
EXTT1=
EXTT2=
EXTT3=
EXTT4=
EXTT5=
EXTT6=
EXTT7=
EXTT8=
EXTT9=
PLAYORDER=
